# xmcd CD database file
#
# Track frame offsets:
#	150
#	16001
#	34054
#	48808
#	63597
#	79344
#	94380
#	104292
#	115622
#	134211
#
# Disc length: 1997 seconds
#
# Revision: 0
# Processed by: cddbd v1.5.1PL0 Copyright (c) Steve Scherf et al.
# Submitted via: CDex 1.51
#
DISCID=8107cb0a
DTITLE=CHOCO - 水色ファンタジア
DYEAR=2005
DGENRE=Instrumental
TTITLE0=水色ファンタジア
TTITLE1=雨上がりの朝
TTITLE2=春の木霊
TTITLE3=しあわせのいずみ
TTITLE4=のんびり船旅
TTITLE5=小さな天使が眠るとき
TTITLE6=夜空と私
TTITLE7=OCEAN BLUE SKY
TTITLE8=雨音に響く
TTITLE9=硝子の心
EXTD=YEAR: 2005
EXTT0=
EXTT1=
EXTT2=
EXTT3=
EXTT4=
EXTT5=
EXTT6=
EXTT7=
EXTT8=
EXTT9=
PLAYORDER=
